A:\Common\BMMB\PROJECTS\STRATO\DataSTRATO\DataSTRATO\0021~016 ID\0021~aa~ID 016\Standing_STRATO_ID_16.mot
version=1
nRows=79
nColumns=10
inDegrees=yes

BTS OpenSim export

endheader
time	[P0A]_force_vx	[P0A]_force_vy	[P0A]_force_vz	[P0A]_force_px	[P0A]_force_py	[P0A]_force_pz	[P0A]_torque_x	[P0A]_torque_y	[P0A]_torque_z
4.412000	7.15692806	770.13055420	-0.49123761	0.19496423	0.00008610	0.36011526	-0.00040099	-1.32076645	-0.00023401
4.416000	7.15490484	770.26104736	-0.47019407	0.19495998	0.00008609	0.36013204	-0.00040052	-1.31921899	-0.00023374
4.420000	7.15710163	770.42004395	-0.44494981	0.19495651	0.00008609	0.36014870	-0.00039912	-1.31462133	-0.00023292
4.424000	7.14460516	770.58709717	-0.41126978	0.19495185	0.00008609	0.36016634	-0.00039823	-1.31169844	-0.00023241
4.428000	7.12577391	770.75592041	-0.39439195	0.19494663	0.00008609	0.36018541	-0.00039712	-1.30801523	-0.00023175
4.432000	7.10485411	770.91668701	-0.36910456	0.19493999	0.00008609	0.36020744	-0.00039594	-1.30414236	-0.00023107
4.436000	7.10284567	771.06921387	-0.34385422	0.19493251	0.00008608	0.36022875	-0.00039570	-1.30334115	-0.00023093
4.440000	7.10714579	771.20739746	-0.31441572	0.19492511	0.00008608	0.36025345	-0.00039550	-1.30268538	-0.00023081
4.444000	7.12193775	771.32843018	-0.28920275	0.19491632	0.00008608	0.36027631	-0.00039599	-1.30428886	-0.00023109
4.448000	7.14090967	771.43646240	-0.27450743	0.19490653	0.00008608	0.36029455	-0.00039587	-1.30390775	-0.00023103
4.452000	7.16619873	771.52008057	-0.24931899	0.19489537	0.00008608	0.36031237	-0.00039642	-1.30571091	-0.00023135
4.456000	7.19988012	771.58648682	-0.22835276	0.19488320	0.00008608	0.36032769	-0.00039630	-1.30533910	-0.00023128
4.460000	7.23568583	771.65197754	-0.19477923	0.19486953	0.00008608	0.36034027	-0.00039579	-1.30364037	-0.00023098
4.464000	7.26727962	771.71240234	-0.16540359	0.19485460	0.00008609	0.36034852	-0.00039480	-1.30037057	-0.00023040
4.468000	7.27574205	771.76062012	-0.14229296	0.19483677	0.00008609	0.36035767	-0.00039330	-1.29545975	-0.00022953
4.472000	7.27367926	771.78649902	-0.12547173	0.19481799	0.00008610	0.36036280	-0.00039234	-1.29227471	-0.00022897
4.476000	7.26952505	771.79119873	-0.10024332	0.19480003	0.00008610	0.36036757	-0.00039063	-1.28665948	-0.00022797
4.480000	7.26326323	771.76824951	-0.07291498	0.19478329	0.00008610	0.36037564	-0.00038938	-1.28254426	-0.00022724
4.484000	7.24645281	771.72930908	-0.06658732	0.19476652	0.00008611	0.36038306	-0.00038828	-1.27889907	-0.00022660
4.488000	7.22963476	771.67395020	-0.06026252	0.19474919	0.00008611	0.36039191	-0.00038785	-1.27748203	-0.00022634
4.492000	7.22121572	771.57684326	-0.05186008	0.19473283	0.00008611	0.36040443	-0.00038878	-1.28055930	-0.00022689
4.496000	7.22120380	771.46264648	-0.03927181	0.19471633	0.00008612	0.36042100	-0.00039082	-1.28726137	-0.00022808
4.500000	7.23379946	771.33209229	-0.02460717	0.19470215	0.00008612	0.36043555	-0.00039310	-1.29480135	-0.00022941
4.504000	7.25900030	771.18847656	-0.00996798	0.19468845	0.00008612	0.36045149	-0.00039462	-1.29978669	-0.00023030
4.508000	7.28630257	771.04888916	0.00466712	0.19467312	0.00008612	0.36046919	-0.00039668	-1.30658019	-0.00023150
4.512000	7.31149769	770.91229248	0.01510379	0.19465576	0.00008612	0.36048406	-0.00039865	-1.31306529	-0.00023265
4.516000	7.34933376	770.76654053	0.04443133	0.19463812	0.00008613	0.36050269	-0.00040025	-1.31832087	-0.00023358
4.520000	7.38718510	770.62384033	0.08216555	0.19462235	0.00008613	0.36052305	-0.00040173	-1.32322574	-0.00023445
4.524000	7.42081547	770.50256348	0.10730229	0.19460647	0.00008613	0.36054233	-0.00040203	-1.32418942	-0.00023462
4.528000	7.45446539	770.38531494	0.14084589	0.19459146	0.00008613	0.36056158	-0.00040179	-1.32341588	-0.00023448
4.532000	7.49652719	770.27111816	0.17857698	0.19457439	0.00008613	0.36058524	-0.00040140	-1.32210732	-0.00023425
4.536000	7.53439045	770.17480469	0.21421757	0.19455600	0.00008613	0.36061150	-0.00040115	-1.32131493	-0.00023411
4.540000	7.56383085	770.08984375	0.23936844	0.19453815	0.00008613	0.36063969	-0.00039996	-1.31739199	-0.00023342
4.544000	7.59537125	770.01684570	0.26241615	0.19452052	0.00008613	0.36067450	-0.00039868	-1.31315184	-0.00023266
4.548000	7.61852169	769.96313477	0.28968418	0.19450177	0.00008613	0.36070964	-0.00039691	-1.30732727	-0.00023163
4.552000	7.65006781	769.91845703	0.31063360	0.19447924	0.00008613	0.36074686	-0.00039456	-1.29958296	-0.00023026
4.556000	7.67952108	769.89080811	0.33369127	0.19445488	0.00008613	0.36078662	-0.00039245	-1.29264152	-0.00022903
4.560000	7.70054770	769.89233398	0.33995727	0.19442776	0.00008613	0.36082795	-0.00038927	-1.28217995	-0.00022718
4.564000	7.70895100	769.92132568	0.33364275	0.19440079	0.00008613	0.36087126	-0.00038631	-1.27241242	-0.00022545
4.568000	7.71737862	769.97045898	0.33783898	0.19437316	0.00008613	0.36091518	-0.00038381	-1.26417756	-0.00022399
4.572000	7.72581577	770.03399658	0.34413904	0.19434398	0.00008613	0.36095873	-0.00038162	-1.25698495	-0.00022271
4.576000	7.73216820	770.11663818	0.35675064	0.19431333	0.00008614	0.36100253	-0.00037901	-1.24839020	-0.00022119
4.580000	7.73637819	770.22357178	0.34415331	0.19428249	0.00008614	0.36104777	-0.00037669	-1.24074852	-0.00021984
4.584000	7.72377777	770.34686279	0.32738695	0.19425258	0.00008614	0.36109370	-0.00037481	-1.23454106	-0.00021874
4.588000	7.72170353	770.47515869	0.32110932	0.19422109	0.00008614	0.36114401	-0.00037301	-1.22861111	-0.00021769
4.592000	7.72174215	770.60125732	0.32113165	0.19419058	0.00008614	0.36119822	-0.00037209	-1.22557962	-0.00021715
4.596000	7.71549273	770.73059082	0.32957178	0.19415836	0.00008614	0.36125335	-0.00037111	-1.22235835	-0.00021658
4.600000	7.70922279	770.85949707	0.32750478	0.19412576	0.00008614	0.36131516	-0.00036981	-1.21808422	-0.00021582
4.604000	7.71978092	770.98419189	0.33381185	0.19409235	0.00008614	0.36138520	-0.00036845	-1.21359050	-0.00021502
4.608000	7.73664427	771.10571289	0.34220821	0.19405937	0.00008613	0.36145791	-0.00036736	-1.21000576	-0.00021439
4.612000	7.76193810	771.22204590	0.36529818	0.19402683	0.00008613	0.36153471	-0.00036603	-1.20561922	-0.00021361
4.616000	7.79775238	771.34124756	0.39467373	0.19399311	0.00008612	0.36161581	-0.00036439	-1.20021927	-0.00021266
4.620000	7.82724285	771.45935059	0.41355345	0.19396125	0.00008612	0.36169785	-0.00036263	-1.19443023	-0.00021163
4.624000	7.86513376	771.56817627	0.43031472	0.19392933	0.00008611	0.36178300	-0.00036114	-1.18952167	-0.00021076
4.628000	7.91982365	771.67114258	0.44284126	0.19389915	0.00008611	0.36187199	-0.00035997	-1.18565714	-0.00021008
4.632000	7.97449064	771.76965332	0.44275859	0.19386895	0.00008610	0.36195886	-0.00035863	-1.18126369	-0.00020930
4.636000	8.01861572	771.86651611	0.42378205	0.19384055	0.00008610	0.36204255	-0.00035876	-1.18167186	-0.00020937
4.640000	8.05638599	771.94494629	0.38169825	0.19381177	0.00008609	0.36212707	-0.00035979	-1.18506587	-0.00020997
4.644000	8.09204197	772.00000000	0.33541128	0.19378124	0.00008608	0.36221445	-0.00036196	-1.19221139	-0.00021124
4.648000	8.12556458	772.03479004	0.27441466	0.19375302	0.00008608	0.36230317	-0.00036480	-1.20156074	-0.00021289
4.652000	8.15486622	772.05114746	0.20711835	0.19372576	0.00008607	0.36239392	-0.00036791	-1.21180296	-0.00021471
4.656000	8.17362785	772.05859375	0.12302824	0.19369923	0.00008606	0.36248320	-0.00037162	-1.22402656	-0.00021687
4.660000	8.18397808	772.04968262	0.03895073	0.19367179	0.00008605	0.36257392	-0.00037517	-1.23574233	-0.00021895
4.664000	8.19225121	772.00933838	-0.02621581	0.19364639	0.00008604	0.36266813	-0.00037948	-1.24992287	-0.00022146
4.668000	8.20054054	771.95562744	-0.08087759	0.19362020	0.00008603	0.36276418	-0.00038262	-1.26025259	-0.00022329
4.672000	8.20465183	771.90600586	-0.12292242	0.19359565	0.00008602	0.36285946	-0.00038515	-1.26860213	-0.00022477
4.676000	8.20665359	771.85870361	-0.16916586	0.19357537	0.00008601	0.36295325	-0.00038692	-1.27442491	-0.00022580
4.680000	8.21077251	771.80828857	-0.20700799	0.19355400	0.00008600	0.36304712	-0.00038842	-1.27935445	-0.00022668
4.684000	8.20860100	771.75915527	-0.23643272	0.19353306	0.00008599	0.36313665	-0.00038997	-1.28446329	-0.00022758
4.688000	8.20646477	771.71301270	-0.24904554	0.19351326	0.00008598	0.36322609	-0.00039088	-1.28747463	-0.00022812
4.692000	8.20011139	771.66906738	-0.26795453	0.19349588	0.00008598	0.36330953	-0.00039213	-1.29157567	-0.00022884
4.696000	8.20426941	771.64184570	-0.28898126	0.19347939	0.00008597	0.36338750	-0.00039290	-1.29413080	-0.00022929
4.700000	8.20632267	771.61047363	-0.31000486	0.19346583	0.00008596	0.36346501	-0.00039389	-1.29737723	-0.00022987
4.704000	8.22519207	771.56579590	-0.32685876	0.19345412	0.00008595	0.36354423	-0.00039475	-1.30021358	-0.00023037
4.708000	8.23986340	771.52209473	-0.34160343	0.19344166	0.00008594	0.36362022	-0.00039605	-1.30449343	-0.00023113
4.712000	8.24612331	771.48455811	-0.36053434	0.19343245	0.00008593	0.36368933	-0.00039787	-1.31048572	-0.00023219
4.716000	8.26497746	771.44305420	-0.38579339	0.19342360	0.00008592	0.36375922	-0.00039977	-1.31674504	-0.00023330
4.720000	8.29433727	771.39044189	-0.41107368	0.19341514	0.00008591	0.36382639	-0.00040237	-1.32532322	-0.00023482
4.724000	8.32160664	771.33056641	-0.43004712	0.19340681	0.00008590	0.36389679	-0.00040489	-1.33362782	-0.00023629
